<svg class="blob-2" viewBox="0 0 200 200" xmlns="http://www.w3.org/2000/svg">
    <path fill="#0F62FE"
        d="M39.3,-69.6C47.1,-63.6,46.8,-45.2,52.7,-31.5C58.6,-17.9,70.7,-8.9,71.8,0.6C72.8,10.2,62.8,20.3,56.6,33.5C50.4,46.6,47.9,62.7,39.1,65.4C30.3,68.1,15.2,57.4,-0.6,58.4C-16.4,59.4,-32.7,72.2,-46.5,72.4C-60.2,72.5,-71.4,60.1,-70.6,45.9C-69.7,31.8,-56.9,15.9,-54.1,1.6C-51.4,-12.7,-58.8,-25.5,-56.8,-34.7C-54.8,-43.9,-43.4,-49.6,-32.3,-53.7C-21.3,-57.7,-10.6,-60,2.6,-64.5C15.8,-68.9,31.6,-75.5,39.3,-69.6Z"
        transform="translate(100 100)" />
</svg>