<svg class="blob-1" viewBox="0 0 200 200" xmlns="http://www.w3.org/2000/svg">
    <path fill="#FF0066"
        d="M39.4,-71.2C48.7,-62.9,52.3,-47.6,58.6,-34.6C64.8,-21.5,73.8,-10.8,75.7,1.1C77.6,13,72.5,25.9,65.1,37C57.7,48.2,48.2,57.5,36.9,64.7C25.7,71.9,12.9,77,0,77.1C-12.9,77.2,-25.9,72.2,-40.3,66.8C-54.7,61.4,-70.6,55.7,-75.4,44.5C-80.2,33.3,-73.9,16.7,-72.7,0.7C-71.4,-15.2,-75.2,-30.4,-68.6,-38.4C-61.9,-46.3,-44.7,-47,-31.5,-53.1C-18.4,-59.2,-9.2,-70.7,2.9,-75.8C15.1,-80.8,30.1,-79.5,39.4,-71.2Z"
        transform="translate(100 100)" />
</svg>